<?xml version="1.0" encoding="UTF-8" standalone="no"?>
<!DOCTYPE svg PUBLIC "-//W3C//DTD SVG 1.1//EN"
 "http://www.w3.org/Graphics/SVG/1.1/DTD/svg11.dtd">
<!-- Generated by graphviz version 12.2.1 (0)
 -->
<!-- Title: G Pages: 1 -->
<svg width="858pt" height="206pt"
 viewBox="0.00 0.00 857.75 206.00" xmlns="http://www.w3.org/2000/svg" xmlns:xlink="http://www.w3.org/1999/xlink">
<g id="graph0" class="graph" transform="scale(1 1) rotate(0) translate(4 202)">
<title>G</title>
<polygon fill="white" stroke="none" points="-4,4 -4,-202 853.75,-202 853.75,4 -4,4"/>
<!-- google_compute_firewall.default -->
<g id="node1" class="node">
<title>google_compute_firewall.default</title>
<polygon fill="none" stroke="black" points="566.38,-198 326.88,-198 326.88,-162 566.38,-162 566.38,-198"/>
<text text-anchor="middle" x="446.62" y="-175.32" font-family="sans-serif" font-size="14.00">google_compute_firewall.default</text>
</g>
<!-- google_compute_network.vpc_network -->
<g id="node5" class="node">
<title>google_compute_network.vpc_network</title>
<polygon fill="none" stroke="black" points="285.25,-117 0,-117 0,-81 285.25,-81 285.25,-117"/>
<text text-anchor="middle" x="142.62" y="-94.33" font-family="sans-serif" font-size="14.00">google_compute_network.vpc_network</text>
</g>
<!-- google_compute_firewall.default&#45;&gt;google_compute_network.vpc_network -->
<g id="edge1" class="edge">
<title>google_compute_firewall.default&#45;&gt;google_compute_network.vpc_network</title>
<path fill="none" stroke="black" d="M356.42,-161.55C344.56,-158.83 332.58,-155.95 321.25,-153 284.54,-143.45 244.04,-131.27 210.99,-120.89"/>
<polygon fill="black" stroke="black" points="212.12,-117.58 201.53,-117.9 210.01,-124.25 212.12,-117.58"/>
</g>
<!-- google_compute_instance.back -->
<g id="node2" class="node">
<title>google_compute_instance.back</title>
<polygon fill="none" stroke="black" points="563,-144 330.25,-144 330.25,-108 563,-108 563,-144"/>
<text text-anchor="middle" x="446.62" y="-121.33" font-family="sans-serif" font-size="14.00">google_compute_instance.back</text>
</g>
<!-- google_compute_instance.back&#45;&gt;google_compute_network.vpc_network -->
<g id="edge2" class="edge">
<title>google_compute_instance.back&#45;&gt;google_compute_network.vpc_network</title>
<path fill="none" stroke="black" d="M330.16,-115.68C319.23,-114.7 308.04,-113.7 296.83,-112.7"/>
<polygon fill="black" stroke="black" points="297.41,-109.24 287.14,-111.83 296.79,-116.21 297.41,-109.24"/>
</g>
<!-- google_compute_instance.bastion -->
<g id="node3" class="node">
<title>google_compute_instance.bastion</title>
<polygon fill="none" stroke="black" points="572,-90 321.25,-90 321.25,-54 572,-54 572,-90"/>
<text text-anchor="middle" x="446.62" y="-67.33" font-family="sans-serif" font-size="14.00">google_compute_instance.bastion</text>
</g>
<!-- google_compute_instance.bastion&#45;&gt;google_compute_network.vpc_network -->
<g id="edge3" class="edge">
<title>google_compute_instance.bastion&#45;&gt;google_compute_network.vpc_network</title>
<path fill="none" stroke="black" d="M321.05,-83.14C313.1,-83.85 305.04,-84.57 296.98,-85.29"/>
<polygon fill="black" stroke="black" points="296.74,-81.8 287.1,-86.17 297.37,-88.77 296.74,-81.8"/>
</g>
<!-- google_compute_instance.front -->
<g id="node4" class="node">
<title>google_compute_instance.front</title>
<polygon fill="none" stroke="black" points="563,-36 330.25,-36 330.25,0 563,0 563,-36"/>
<text text-anchor="middle" x="446.62" y="-13.32" font-family="sans-serif" font-size="14.00">google_compute_instance.front</text>
</g>
<!-- google_compute_instance.front&#45;&gt;google_compute_network.vpc_network -->
<g id="edge4" class="edge">
<title>google_compute_instance.front&#45;&gt;google_compute_network.vpc_network</title>
<path fill="none" stroke="black" d="M356.42,-36.45C344.56,-39.17 332.58,-42.05 321.25,-45 284.54,-54.55 244.04,-66.73 210.99,-77.11"/>
<polygon fill="black" stroke="black" points="210.01,-73.75 201.53,-80.1 212.12,-80.42 210.01,-73.75"/>
</g>
<!-- null_resource.populate_ssh_keys -->
<g id="node6" class="node">
<title>null_resource.populate_ssh_keys</title>
<polygon fill="none" stroke="black" points="849.75,-90 608,-90 608,-54 849.75,-54 849.75,-90"/>
<text text-anchor="middle" x="728.88" y="-67.33" font-family="sans-serif" font-size="14.00">null_resource.populate_ssh_keys</text>
</g>
<!-- null_resource.populate_ssh_keys&#45;&gt;google_compute_instance.back -->
<g id="edge5" class="edge">
<title>null_resource.populate_ssh_keys&#45;&gt;google_compute_instance.back</title>
<path fill="none" stroke="black" d="M632.21,-90.43C607.21,-95.25 580.1,-100.47 554.56,-105.4"/>
<polygon fill="black" stroke="black" points="553.98,-101.94 544.82,-107.27 555.3,-108.82 553.98,-101.94"/>
</g>
<!-- null_resource.populate_ssh_keys&#45;&gt;google_compute_instance.bastion -->
<g id="edge6" class="edge">
<title>null_resource.populate_ssh_keys&#45;&gt;google_compute_instance.bastion</title>
<path fill="none" stroke="black" d="M607.8,-72C599.83,-72 591.76,-72 583.71,-72"/>
<polygon fill="black" stroke="black" points="583.87,-68.5 573.87,-72 583.87,-75.5 583.87,-68.5"/>
</g>
<!-- null_resource.populate_ssh_keys&#45;&gt;google_compute_instance.front -->
<g id="edge7" class="edge">
<title>null_resource.populate_ssh_keys&#45;&gt;google_compute_instance.front</title>
<path fill="none" stroke="black" d="M632.21,-53.57C607.21,-48.75 580.1,-43.53 554.56,-38.6"/>
<polygon fill="black" stroke="black" points="555.3,-35.18 544.82,-36.73 553.98,-42.06 555.3,-35.18"/>
</g>
</g>
</svg>
